<?xml version="1.0" encoding="UTF-8" standalone="no"?>
<svg
   xmlns:dc="http://purl.org/dc/elements/1.1/"
   xmlns:cc="http://creativecommons.org/ns#"
   xmlns:rdf="http://www.w3.org/1999/02/22-rdf-syntax-ns#"
   xmlns:svg="http://www.w3.org/2000/svg"
   xmlns="http://www.w3.org/2000/svg"
   xmlns:sodipodi="http://sodipodi.sourceforge.net/DTD/sodipodi-0.dtd"
   xmlns:inkscape="http://www.inkscape.org/namespaces/inkscape"
   height="100"
   viewBox="0 0 100 100"
   width="100"
   version="1.1"
   id="svg12"
   sodipodi:docname="logo_composite.svg"
   inkscape:export-filename="C:\Users\piet.bronders\Desktop\composite.png"
   inkscape:export-xdpi="600"
   inkscape:export-ydpi="600"
   inkscape:version="0.92.4 (5da689c313, 2019-01-14)">
  <metadata
     id="metadata18">
    <rdf:RDF>
      <cc:Work
         rdf:about="">
        <dc:format>image/svg+xml</dc:format>
        <dc:type
           rdf:resource="http://purl.org/dc/dcmitype/StillImage" />
        <dc:title />
      </cc:Work>
    </rdf:RDF>
  </metadata>
  <defs
     id="defs16" />
  <sodipodi:namedview
     pagecolor="#ffffff"
     bordercolor="#666666"
     borderopacity="1"
     objecttolerance="10"
     gridtolerance="10"
     guidetolerance="10"
     inkscape:pageopacity="0"
     inkscape:pageshadow="2"
     inkscape:window-width="1920"
     inkscape:window-height="1001"
     id="namedview14"
     showgrid="true"
     fit-margin-top="9.5"
     fit-margin-left="9.5"
     fit-margin-right="9.5"
     fit-margin-bottom="9.5"
     inkscape:zoom="5.4451003"
     inkscape:cx="32.299097"
     inkscape:cy="45.01917"
     inkscape:window-x="-9"
     inkscape:window-y="-9"
     inkscape:window-maximized="1"
     inkscape:current-layer="svg12"
     showguides="false"
     inkscape:snap-bbox="true"
     inkscape:snap-global="true"
     inkscape:bbox-nodes="true">
    <inkscape:grid
       type="xygrid"
       id="grid816"
       originx="15"
       originy="5" />
  </sodipodi:namedview>
  <rect
     style="opacity:1;vector-effect:none;fill:#ffffff;fill-opacity:0.07843138;fill-rule:nonzero;stroke:#000000;stroke-width:1;stroke-linecap:butt;stroke-linejoin:miter;stroke-miterlimit:4;stroke-dasharray:none;stroke-dashoffset:0;stroke-opacity:1"
     id="rect818"
     width="80"
     height="80"
     x="10"
     y="10" />
  <path
     d="m 43.10952,18.056 c -3.0948,0.68801 -6.1571,1.6452 -9.0273,3.0898 0.06564,2.5344 0.23035,4.963 0.5625,7.4297 -1.1147,0.71414 -2.287,1.3281 -3.3281,2.1641 -1.0578,0.81382 -2.1378,1.5912 -3.0957,2.543 -1.9136,-1.2657 -3.9389,-2.454 -6.0254,-3.5039 -2.2491,2.4205 -4.3524,5.0317 -6.0703,7.9551 1.2924,2.0908 2.6428,4.0523 4.0996,5.9121 h 0.04102 v 14.438 1.834 1.6699 c 0.03282,3.04e-4 0.06514,8.06e-4 0.09766,0.0039 l 11,1.0605 c 0.57617,0.05561 1.0282,0.52027 1.0684,1.0977 l 0.33789,4.8555 9.5957,0.68359 0.66016,-4.4805 c 0.0857,-0.58104 0.58415,-1.0117 1.1719,-1.0117 h 11.605 c 0.58742,0 1.0862,0.43068 1.1719,1.0117 l 0.66016,4.4805 9.5957,-0.68359 0.33789,-4.8555 c 0.04042,-0.57739 0.49219,-1.0417 1.0684,-1.0977 l 10.996,-1.0605 c 0.03252,-0.003 0.06484,-0.0036 0.09766,-0.0039 v -1.4316 l 0.0039,-0.002 v -16.508 h 0.04102 c 1.4571,-1.8598 2.8066,-3.8214 4.0996,-5.9121 -1.7173,-2.9234 -3.8232,-5.5346 -6.0723,-7.9551 -2.0859,1.0499 -4.1118,2.2382 -6.0254,3.5039 -0.95756,-0.95178 -2.0363,-1.7292 -3.0957,-2.543 -1.0408,-0.836 -2.2136,-1.4499 -3.3262,-2.1641 0.33124,-2.4667 0.49656,-4.8952 0.5625,-7.4297 -2.8706,-1.4447 -5.933,-2.4018 -9.0293,-3.0898 -1.2362,2.0777 -2.367,4.3278 -3.3516,6.5273 -1.1675,-0.1951 -2.3391,-0.26727 -3.5137,-0.28125 v -0.002 c -0.0082,0 -0.01645,0.002 -0.02344,0.002 -0.0073,0 -0.01419,-0.002 -0.02148,-0.002 v 0.002 c -1.1767,0.01398 -2.3497,0.08615 -3.5176,0.28125 -0.98399,-2.1996 -2.1135,-4.4497 -3.3516,-6.5273 z m -22.863,45.904 c 0.0046,1.063 0.01953,2.2271 0.01953,2.459 0,10.446 13.251,15.468 29.715,15.525 h 0.01953 0.01953 c 16.464,-0.05774 29.711,-5.0795 29.711,-15.525 0,-0.23612 0.01466,-1.3954 0.01953,-2.459 l -9.8867,0.95312 -0.3418,4.8809 c -0.04102,0.58833 -0.50933,1.0574 -1.0977,1.0996 l -11.717,0.83594 c -0.02857,0.0021 -0.05572,0.0039 -0.08398,0.0039 -0.58225,0 -1.0859,-0.42704 -1.1719,-1.0117 l -0.67188,-4.5566 h -9.5586 l -0.67188,4.5566 c -0.09025,0.61325 -0.63836,1.0531 -1.2559,1.0078 l -11.717,-0.83594 c -0.58833,-0.04224 -1.0566,-0.51128 -1.0977,-1.0996 L 30.1368,64.91312 20.2462,63.96 Z"
     id="path6"
     inkscape:connector-curvature="0"
     style="fill:#478cbf"
     inkscape:export-xdpi="300"
     inkscape:export-ydpi="300" />
  <path
     d="m 34.40852,44.302 c -3.6594,0 -6.6289,2.9669 -6.6289,6.627 0,3.6625 2.9695,6.6289 6.6289,6.6289 3.6613,0 6.627,-2.9664 6.627,-6.6289 0,-3.66 -2.9657,-6.627 -6.627,-6.627 z m 31.186,0 c -3.6619,0 -6.6289,2.9669 -6.6289,6.627 0,3.6625 2.967,6.6289 6.6289,6.6289 3.6591,0 6.627,-2.9664 6.627,-6.6289 0,-3.66 -2.9678,-6.627 -6.627,-6.627 z m -15.594,3.8789 c -1.1785,0 -2.1348,0.86781 -2.1348,1.9375 v 6.1035 c 0,1.0706 0.95628,1.9395 2.1348,1.9395 1.17852,0 2.1348,-0.86885 2.1348,-1.9395 v -6.1035 c 0,-1.0697 -0.95628,-1.9375 -2.1348,-1.9375 z"
     id="path8"
     inkscape:connector-curvature="0"
     style="fill:#f6f6f6" />
  <path
     d="m 35.04152,46.921 c -2.4299,0 -4.4004,1.9711 -4.4004,4.4004 0,2.4293 1.9705,4.3984 4.4004,4.3984 2.4311,0 4.4004,-1.9691 4.4004,-4.3984 0,-2.4293 -1.9693,-4.4004 -4.4004,-4.4004 z m 29.916,0 c -2.4293,0 -4.3984,1.9711 -4.3984,4.4004 0,2.4293 1.9691,4.3984 4.3984,4.3984 2.4317,0 4.4004,-1.9691 4.4004,-4.3984 0,-2.4293 -1.9687,-4.4004 -4.4004,-4.4004 z"
     id="path10"
     inkscape:connector-curvature="0"
     style="fill:#414042" />
</svg>
